<?xml version="1.0" encoding="UTF-8"?>
<svg id="Layer_2" data-name="Layer 2" xmlns="http://www.w3.org/2000/svg" viewBox="0 0 567.08 386.2">
  <defs>
    <style>
      .cls-1 {
        fill: #010101;
      }

      .cls-2 {
        fill: none;
        stroke: #231f20;
        stroke-miterlimit: 10;
        stroke-width: 15.53px;
      }
    </style>
  </defs>
  <g id="Layer_1-2" data-name="Layer 1">
    <g>
      <path class="cls-2" d="M199.04,102.59c0,52.02-43.17,94.83-95.63,94.83S7.77,154.61,7.77,102.59,50.94,7.77,103.4,7.77s95.63,42.81,95.63,94.83Z"/>
      <path class="cls-2" d="M140.23,181.85c8.82,15.63,17.65,31.26,26.47,46.9"/>
      <path class="cls-2" d="M266.43,264.17c1.49,1.65,21.88,23.57,49.46,18.85,3.03-.52,22.78-3.9,31.16-20.28,7.15-13.97,3.11-31.7-5.88-42.85-17.02-21.11-45.14-10.35-58.45-31.16-8.82-13.79-3.69-29.8-2.87-32.23,5-14.83,19.92-28.72,38.47-28.76,15.59-.04,26.17,9.73,28.72,12.23"/>
      <path class="cls-2" d="M489.33,154.61c-7.75,37.75-45.52,62.26-84.37,54.73-38.85-7.53-64.06-44.24-56.32-81.99,7.75-37.75,45.52-62.26,84.37-54.73,38.85,7.53,64.06,44.24,56.32,81.99Z"/>
      <path class="cls-2" d="M558.36,340.32c-5.26,25.66-30.93,42.31-57.33,37.19-26.4-5.12-43.53-30.06-38.27-55.72,5.26-25.66,30.93-42.31,57.33-37.19,26.4,5.12,43.53,30.06,38.27,55.72Z"/>
      <path class="cls-2" d="M447.48,205.3c-28.11,25.73-33.92,35.13-31.87,37.94,7.09,9.67,75.14-23.4,81.04-13.56,5.57,9.3-51.67,45.98-45.33,57.95,3.55,6.71,25.61,2.88,47.87-2.86"/>
      <path class="cls-1" d="M206,352.23c-.56-.11-1.13-.18-1.72-.17-3.8.06-7.66-.21-11.45-.82-28.68-4.57-49.6-27.26-52.55-54.06l3.27,3.35c2.98,3.04,7.89,3.14,11.03.25,3.14-2.89,3.28-7.69.33-10.72l-16.39-16.81c-1.43-1.48-3.38-2.3-5.44-2.34-2.07-.05-4.08.71-5.58,2.1l-17.4,16.04c-3.14,2.89-3.28,7.69-.33,10.72.06.06.12.12.18.18,2.97,2.85,7.77,2.9,10.84.07l3.73-3.44c1.06,13.78,5.94,27.05,14.38,38.57,2.69,3.67,5.67,7.07,8.91,10.18,11.47,11.01,26.14,18.29,42.41,20.88,4.71.75,9.5,1.09,14.24,1.01.83-.01,1.61-.19,2.36-.43-.34-4.85-.63-9.7-.8-14.56Z"/>
      <path class="cls-1" d="M258.4,364.31c-1.26,4.03-5.57,6.33-9.72,5.16l-22.9-6.53c-1.26-.36-2.36-1.02-3.26-1.84-1.94-1.94-2.84-4.8-1.94-7.55l6.83-22.31c1.26-4.03,5.62-6.33,9.72-5.16,4.15,1.17,6.51,5.41,5.25,9.39l-1.37,4.44c4.34-2.94,16.21-11.79,21.94-28.11,7.31-20.79-.66-38.54-2.52-42.43,1.27-1.06,3.5-2.63,6.66-3.49,5.67-1.55,10.44.23,12,.89,10.56,32.67-2.63,67.84-30.88,86.73l4.94,1.43c4.15,1.17,6.51,5.41,5.25,9.39Z"/>
      <path class="cls-1" d="M257.34,234.71l-5.5-22.58c-.99-4.07-5.19-6.56-9.38-5.57-4.19.99-6.79,5.09-5.8,9.16l1.19,4.88c-32-14.73-71.61-7.03-95.28,20.85-3.01,3.54-5.7,7.36-8,11.33,4.79,1.93,9.18,4.62,13.31,7.72.05-.08.14-.13.19-.21,1.87-3.24,4.06-6.34,6.52-9.23,18.58-21.88,49.38-28.27,74.75-17.52l-4.64,1.09c-4.19.99-6.79,5.09-5.8,9.16.35,1.43,1.09,2.66,2.09,3.62,1.85,1.77,4.58,2.6,7.3,1.96l23.27-5.49c4.19-.99,6.79-5.09,5.8-9.16Z"/>
    </g>
  </g>
</svg>